<mxfile host="app.diagrams.net" modified="2023-10-21T08:28:09.511Z" agent="Mozilla/5.0 (Macintosh; Intel Mac OS X 10_15_7) AppleWebKit/537.36 (KHTML, like Gecko) Chrome/118.0.0.0 Safari/537.36" etag="OyDETWeuLwWaRfiXtx0D" version="22.0.6" type="github">
  <diagram name="Page-1" id="WiTn8isQ3tz0NeDUUIZ3">
    <mxGraphModel dx="965" dy="835" grid="1" gridSize="10" guides="1" tooltips="1" connect="1" arrows="1" fold="1" page="1" pageScale="1" pageWidth="850" pageHeight="1100" math="0" shadow="0">
      <root>
        <mxCell id="0" />
        <mxCell id="1" parent="0" />
        <mxCell id="oTEpMk7W6n4_QLsBSc6U-42" value="" style="group;fontStyle=1" vertex="1" connectable="0" parent="1">
          <mxGeometry x="210" y="285" width="980" height="165" as="geometry" />
        </mxCell>
        <mxCell id="oTEpMk7W6n4_QLsBSc6U-43" value="" style="rounded=1;whiteSpace=wrap;html=1;arcSize=7;fontStyle=1" vertex="1" parent="oTEpMk7W6n4_QLsBSc6U-42">
          <mxGeometry x="18.85" y="-38.82" width="891.15" height="188.82" as="geometry" />
        </mxCell>
        <mxCell id="oTEpMk7W6n4_QLsBSc6U-44" value="API&amp;nbsp; Server" style="rounded=0;whiteSpace=wrap;html=1;fontStyle=1" vertex="1" parent="oTEpMk7W6n4_QLsBSc6U-42">
          <mxGeometry x="186.98211538461538" y="29.11764705882353" width="91.52634615384615" height="38.8235294117647" as="geometry" />
        </mxCell>
        <mxCell id="oTEpMk7W6n4_QLsBSc6U-45" style="edgeStyle=orthogonalEdgeStyle;rounded=0;orthogonalLoop=1;jettySize=auto;html=1;exitX=0.25;exitY=0;exitDx=0;exitDy=0;entryX=0.25;entryY=0;entryDx=0;entryDy=0;" edge="1" parent="oTEpMk7W6n4_QLsBSc6U-42" source="oTEpMk7W6n4_QLsBSc6U-46" target="oTEpMk7W6n4_QLsBSc6U-44">
          <mxGeometry relative="1" as="geometry" />
        </mxCell>
        <mxCell id="oTEpMk7W6n4_QLsBSc6U-46" value="Web Application&lt;br&gt;(User Interface)" style="rounded=0;whiteSpace=wrap;html=1;fontStyle=1" vertex="1" parent="oTEpMk7W6n4_QLsBSc6U-42">
          <mxGeometry x="32.84834127225431" y="29.11764705882353" width="131.39336508901724" height="38.8235294117647" as="geometry" />
        </mxCell>
        <mxCell id="oTEpMk7W6n4_QLsBSc6U-47" style="edgeStyle=orthogonalEdgeStyle;rounded=0;orthogonalLoop=1;jettySize=auto;html=1;exitX=0.5;exitY=1;exitDx=0;exitDy=0;entryX=0.5;entryY=1;entryDx=0;entryDy=0;fontStyle=1" edge="1" parent="oTEpMk7W6n4_QLsBSc6U-42" source="oTEpMk7W6n4_QLsBSc6U-48" target="oTEpMk7W6n4_QLsBSc6U-50">
          <mxGeometry relative="1" as="geometry" />
        </mxCell>
        <mxCell id="oTEpMk7W6n4_QLsBSc6U-48" value="Fuzzification Module" style="rounded=0;whiteSpace=wrap;html=1;fontStyle=1" vertex="1" parent="oTEpMk7W6n4_QLsBSc6U-42">
          <mxGeometry x="461.73438616938614" y="29.11764705882353" width="131.39336508901724" height="38.8235294117647" as="geometry" />
        </mxCell>
        <mxCell id="oTEpMk7W6n4_QLsBSc6U-49" style="edgeStyle=orthogonalEdgeStyle;rounded=0;orthogonalLoop=1;jettySize=auto;html=1;exitX=0.5;exitY=0;exitDx=0;exitDy=0;entryX=0.5;entryY=0;entryDx=0;entryDy=0;fontStyle=1" edge="1" parent="oTEpMk7W6n4_QLsBSc6U-42" source="oTEpMk7W6n4_QLsBSc6U-50" target="oTEpMk7W6n4_QLsBSc6U-53">
          <mxGeometry relative="1" as="geometry" />
        </mxCell>
        <mxCell id="oTEpMk7W6n4_QLsBSc6U-50" value="Inference Engine" style="rounded=0;whiteSpace=wrap;html=1;fontStyle=1" vertex="1" parent="oTEpMk7W6n4_QLsBSc6U-42">
          <mxGeometry x="617.2115384615385" y="29.11764705882353" width="117.78846153846153" height="38.8235294117647" as="geometry" />
        </mxCell>
        <mxCell id="oTEpMk7W6n4_QLsBSc6U-51" value="Send fuzzy data" style="text;html=1;align=center;verticalAlign=middle;resizable=0;points=[];autosize=1;strokeColor=none;fillColor=none;fontStyle=1" vertex="1" parent="oTEpMk7W6n4_QLsBSc6U-42">
          <mxGeometry x="558.7884615384615" y="82.5" width="110" height="30" as="geometry" />
        </mxCell>
        <mxCell id="oTEpMk7W6n4_QLsBSc6U-52" value="Stores &amp;amp; retrieves data&amp;nbsp;" style="text;html=1;align=center;verticalAlign=middle;resizable=0;points=[];autosize=1;strokeColor=none;fillColor=none;fontStyle=1" vertex="1" parent="oTEpMk7W6n4_QLsBSc6U-42">
          <mxGeometry x="235.5724632895285" y="86.3868325791855" width="160" height="30" as="geometry" />
        </mxCell>
        <mxCell id="oTEpMk7W6n4_QLsBSc6U-53" value="Defuzzification Module" style="rounded=0;whiteSpace=wrap;html=1;fontStyle=1" vertex="1" parent="oTEpMk7W6n4_QLsBSc6U-42">
          <mxGeometry x="763.2728477078475" y="29.11764705882353" width="131.39336508901724" height="38.8235294117647" as="geometry" />
        </mxCell>
        <mxCell id="oTEpMk7W6n4_QLsBSc6U-54" value="Send fuzzy results" style="text;html=1;align=center;verticalAlign=middle;resizable=0;points=[];autosize=1;strokeColor=none;fillColor=none;fontStyle=1" vertex="1" parent="oTEpMk7W6n4_QLsBSc6U-42">
          <mxGeometry x="703.9038461538462" y="-14.558823529411764" width="130" height="30" as="geometry" />
        </mxCell>
        <mxCell id="oTEpMk7W6n4_QLsBSc6U-55" value="Send crisp results" style="text;html=1;align=center;verticalAlign=middle;resizable=0;points=[];autosize=1;strokeColor=none;fillColor=none;fontStyle=1" vertex="1" parent="oTEpMk7W6n4_QLsBSc6U-42">
          <mxGeometry x="555.9615384615385" y="107.73529411764706" width="130" height="30" as="geometry" />
        </mxCell>
        <mxCell id="oTEpMk7W6n4_QLsBSc6U-56" style="edgeStyle=orthogonalEdgeStyle;rounded=0;orthogonalLoop=1;jettySize=auto;html=1;exitX=0.5;exitY=0;exitDx=0;exitDy=0;exitPerimeter=0;entryX=0.5;entryY=0;entryDx=0;entryDy=0;fontStyle=1" edge="1" parent="oTEpMk7W6n4_QLsBSc6U-42" source="oTEpMk7W6n4_QLsBSc6U-57" target="oTEpMk7W6n4_QLsBSc6U-48">
          <mxGeometry relative="1" as="geometry" />
        </mxCell>
        <mxCell id="oTEpMk7W6n4_QLsBSc6U-57" value="Database" style="shape=cylinder3;whiteSpace=wrap;html=1;boundedLbl=1;backgroundOutline=1;size=15;fontStyle=1" vertex="1" parent="oTEpMk7W6n4_QLsBSc6U-42">
          <mxGeometry x="302.4807692307692" y="21.83823529411765" width="131.92307692307693" height="53.38235294117647" as="geometry" />
        </mxCell>
        <mxCell id="oTEpMk7W6n4_QLsBSc6U-58" style="edgeStyle=orthogonalEdgeStyle;rounded=0;orthogonalLoop=1;jettySize=auto;html=1;exitX=0.5;exitY=1;exitDx=0;exitDy=0;entryX=0.855;entryY=1;entryDx=0;entryDy=-4.35;entryPerimeter=0;fontStyle=1" edge="1" parent="oTEpMk7W6n4_QLsBSc6U-42" source="oTEpMk7W6n4_QLsBSc6U-53" target="oTEpMk7W6n4_QLsBSc6U-57">
          <mxGeometry relative="1" as="geometry">
            <Array as="points">
              <mxPoint x="838.6538461538462" y="111.61764705882352" />
              <mxPoint x="415.5576923076923" y="111.61764705882352" />
            </Array>
          </mxGeometry>
        </mxCell>
        <mxCell id="oTEpMk7W6n4_QLsBSc6U-59" value="Fetch &amp;amp; send data using" style="text;html=1;align=center;verticalAlign=middle;resizable=0;points=[];autosize=1;strokeColor=none;fillColor=none;fontStyle=1" vertex="1" parent="oTEpMk7W6n4_QLsBSc6U-42">
          <mxGeometry x="60.30430366935801" y="-14.554343891402736" width="160" height="30" as="geometry" />
        </mxCell>
        <mxCell id="oTEpMk7W6n4_QLsBSc6U-60" style="edgeStyle=orthogonalEdgeStyle;rounded=0;orthogonalLoop=1;jettySize=auto;html=1;exitX=0.75;exitY=1;exitDx=0;exitDy=0;entryX=0.5;entryY=1;entryDx=0;entryDy=0;entryPerimeter=0;" edge="1" parent="oTEpMk7W6n4_QLsBSc6U-42" source="oTEpMk7W6n4_QLsBSc6U-44" target="oTEpMk7W6n4_QLsBSc6U-57">
          <mxGeometry relative="1" as="geometry">
            <Array as="points">
              <mxPoint x="255.3653846153846" y="92.20588235294117" />
              <mxPoint x="368.4423076923077" y="92.20588235294117" />
            </Array>
          </mxGeometry>
        </mxCell>
        <mxCell id="oTEpMk7W6n4_QLsBSc6U-61" style="edgeStyle=orthogonalEdgeStyle;rounded=0;orthogonalLoop=1;jettySize=auto;html=1;exitX=0.5;exitY=0.5;exitDx=0;exitDy=0;exitPerimeter=0;entryX=0;entryY=0.25;entryDx=0;entryDy=0;fontStyle=1" edge="1" parent="1" source="oTEpMk7W6n4_QLsBSc6U-62" target="oTEpMk7W6n4_QLsBSc6U-46">
          <mxGeometry relative="1" as="geometry" />
        </mxCell>
        <mxCell id="oTEpMk7W6n4_QLsBSc6U-62" value="Actor" style="shape=umlActor;verticalLabelPosition=bottom;verticalAlign=top;html=1;noLabel=1;fontStyle=1" vertex="1" parent="1">
          <mxGeometry x="30" y="292.94" width="30" height="60" as="geometry" />
        </mxCell>
        <mxCell id="oTEpMk7W6n4_QLsBSc6U-63" style="edgeStyle=orthogonalEdgeStyle;rounded=0;orthogonalLoop=1;jettySize=auto;html=1;exitX=1;exitY=0.3333333333333333;exitDx=0;exitDy=0;exitPerimeter=0;entryX=0.5;entryY=1;entryDx=0;entryDy=0;" edge="1" parent="1" source="oTEpMk7W6n4_QLsBSc6U-64" target="oTEpMk7W6n4_QLsBSc6U-46">
          <mxGeometry relative="1" as="geometry" />
        </mxCell>
        <mxCell id="oTEpMk7W6n4_QLsBSc6U-64" value="Actor" style="shape=umlActor;verticalLabelPosition=bottom;verticalAlign=top;html=1;noLabel=1;fontStyle=1" vertex="1" parent="1">
          <mxGeometry x="30" y="430" width="30" height="60" as="geometry" />
        </mxCell>
        <mxCell id="oTEpMk7W6n4_QLsBSc6U-65" style="edgeStyle=orthogonalEdgeStyle;rounded=0;orthogonalLoop=1;jettySize=auto;html=1;exitX=1;exitY=0.3333333333333333;exitDx=0;exitDy=0;exitPerimeter=0;entryX=0.5;entryY=1;entryDx=0;entryDy=0;" edge="1" parent="1" source="oTEpMk7W6n4_QLsBSc6U-66" target="oTEpMk7W6n4_QLsBSc6U-72">
          <mxGeometry relative="1" as="geometry" />
        </mxCell>
        <mxCell id="oTEpMk7W6n4_QLsBSc6U-66" value="Actor" style="shape=umlActor;verticalLabelPosition=bottom;verticalAlign=top;html=1;noLabel=1;fontStyle=1" vertex="1" parent="1">
          <mxGeometry x="30" y="170" width="30" height="60" as="geometry" />
        </mxCell>
        <mxCell id="oTEpMk7W6n4_QLsBSc6U-67" value="Admin" style="text;html=1;align=center;verticalAlign=middle;resizable=0;points=[];autosize=1;strokeColor=none;fillColor=none;fontStyle=1" vertex="1" parent="1">
          <mxGeometry x="15" y="365" width="60" height="30" as="geometry" />
        </mxCell>
        <mxCell id="oTEpMk7W6n4_QLsBSc6U-68" value="&lt;span&gt;Email System&lt;/span&gt;" style="rounded=1;whiteSpace=wrap;html=1;fontStyle=1" vertex="1" parent="1">
          <mxGeometry x="580" y="70" width="120" height="60" as="geometry" />
        </mxCell>
        <mxCell id="oTEpMk7W6n4_QLsBSc6U-69" value="Mails" style="text;html=1;align=center;verticalAlign=middle;resizable=0;points=[];autosize=1;strokeColor=none;fillColor=none;rotation=-90;fontStyle=1" vertex="1" parent="1">
          <mxGeometry x="635" y="170" width="50" height="30" as="geometry" />
        </mxCell>
        <mxCell id="oTEpMk7W6n4_QLsBSc6U-70" style="edgeStyle=orthogonalEdgeStyle;rounded=0;orthogonalLoop=1;jettySize=auto;html=1;exitX=0.5;exitY=0;exitDx=0;exitDy=0;entryX=0.5;entryY=0;entryDx=0;entryDy=0;entryPerimeter=0;fontStyle=1" edge="1" parent="1" source="oTEpMk7W6n4_QLsBSc6U-68" target="oTEpMk7W6n4_QLsBSc6U-66">
          <mxGeometry relative="1" as="geometry" />
        </mxCell>
        <mxCell id="oTEpMk7W6n4_QLsBSc6U-71" value="Sends mails" style="text;html=1;align=center;verticalAlign=middle;resizable=0;points=[];autosize=1;strokeColor=none;fillColor=none;fontStyle=1" vertex="1" parent="1">
          <mxGeometry x="230" y="20" width="90" height="30" as="geometry" />
        </mxCell>
        <mxCell id="oTEpMk7W6n4_QLsBSc6U-72" value="&lt;span&gt;Form System&lt;/span&gt;" style="rounded=1;whiteSpace=wrap;html=1;fontStyle=1" vertex="1" parent="1">
          <mxGeometry x="440.0000000000001" y="70" width="120" height="60" as="geometry" />
        </mxCell>
        <mxCell id="oTEpMk7W6n4_QLsBSc6U-73" value="Sends loan requests using" style="text;html=1;align=center;verticalAlign=middle;resizable=0;points=[];autosize=1;strokeColor=none;fillColor=none;rotation=0;fontStyle=1" vertex="1" parent="1">
          <mxGeometry x="90" y="160" width="180" height="30" as="geometry" />
        </mxCell>
        <mxCell id="oTEpMk7W6n4_QLsBSc6U-74" value="&lt;font style=&quot;font-size: 11px;&quot;&gt;Manages Lenders using&lt;/font&gt;" style="text;html=1;align=center;verticalAlign=middle;resizable=0;points=[];autosize=1;strokeColor=none;fillColor=none;fontStyle=1" vertex="1" parent="1">
          <mxGeometry x="80" y="295" width="150" height="30" as="geometry" />
        </mxCell>
        <mxCell id="oTEpMk7W6n4_QLsBSc6U-75" value="Lender" style="text;html=1;align=center;verticalAlign=middle;resizable=0;points=[];autosize=1;strokeColor=none;fillColor=none;fontStyle=1" vertex="1" parent="1">
          <mxGeometry x="15" y="490" width="60" height="30" as="geometry" />
        </mxCell>
        <mxCell id="oTEpMk7W6n4_QLsBSc6U-76" value="&lt;span style=&quot;border-color: var(--border-color);&quot;&gt;Loan Management System&amp;nbsp;&lt;br&gt;&lt;/span&gt;" style="text;html=1;align=center;verticalAlign=middle;resizable=0;points=[];autosize=1;strokeColor=none;fillColor=none;fontStyle=1" vertex="1" parent="1">
          <mxGeometry x="230" y="214.995" width="180" height="30" as="geometry" />
        </mxCell>
        <mxCell id="oTEpMk7W6n4_QLsBSc6U-77" value="Send crisp data" style="text;html=1;align=center;verticalAlign=middle;resizable=0;points=[];autosize=1;strokeColor=none;fillColor=none;fontStyle=1" vertex="1" parent="1">
          <mxGeometry x="630" y="260" width="110" height="30" as="geometry" />
        </mxCell>
        <mxCell id="oTEpMk7W6n4_QLsBSc6U-78" style="edgeStyle=orthogonalEdgeStyle;rounded=0;orthogonalLoop=1;jettySize=auto;html=1;exitX=0.25;exitY=0;exitDx=0;exitDy=0;entryX=0.569;entryY=1;entryDx=0;entryDy=0;entryPerimeter=0;" edge="1" parent="1" source="oTEpMk7W6n4_QLsBSc6U-43" target="oTEpMk7W6n4_QLsBSc6U-68">
          <mxGeometry relative="1" as="geometry">
            <Array as="points">
              <mxPoint x="648" y="246" />
            </Array>
          </mxGeometry>
        </mxCell>
        <mxCell id="oTEpMk7W6n4_QLsBSc6U-79" value="Borrower" style="text;html=1;align=center;verticalAlign=middle;resizable=0;points=[];autosize=1;strokeColor=none;fillColor=none;fontStyle=1" vertex="1" parent="1">
          <mxGeometry x="10" y="230" width="80" height="30" as="geometry" />
        </mxCell>
        <mxCell id="oTEpMk7W6n4_QLsBSc6U-80" value="Manages loans using" style="text;html=1;align=center;verticalAlign=middle;resizable=0;points=[];autosize=1;strokeColor=none;fillColor=none;rotation=0;fontStyle=1" vertex="1" parent="1">
          <mxGeometry x="70" y="420" width="140" height="30" as="geometry" />
        </mxCell>
        <mxCell id="oTEpMk7W6n4_QLsBSc6U-81" style="edgeStyle=orthogonalEdgeStyle;rounded=0;orthogonalLoop=1;jettySize=auto;html=1;exitX=0.75;exitY=1;exitDx=0;exitDy=0;entryX=0.145;entryY=0;entryDx=0;entryDy=4.35;entryPerimeter=0;" edge="1" parent="1" source="oTEpMk7W6n4_QLsBSc6U-72" target="oTEpMk7W6n4_QLsBSc6U-57">
          <mxGeometry relative="1" as="geometry" />
        </mxCell>
        <mxCell id="oTEpMk7W6n4_QLsBSc6U-82" value="Loan requests" style="text;html=1;align=center;verticalAlign=middle;resizable=0;points=[];autosize=1;strokeColor=none;fillColor=none;rotation=-90;fontStyle=1" vertex="1" parent="1">
          <mxGeometry x="490" y="180" width="110" height="30" as="geometry" />
        </mxCell>
      </root>
    </mxGraphModel>
  </diagram>
</mxfile>
